<svg width="24" height="24" viewBox="0 0 24 24" fill="none" xmlns="http://www.w3.org/2000/svg"><path fill-rule="evenodd" clip-rule="evenodd" d="M12.031 17.672c-.302.3-.792.3-1.095 0l-2.58-2.564a.766.766 0 0 1 0-1.088c.302-.3.792-.3 1.095 0l1.259 1.251V12c0-.425.346-.77.774-.77.427 0 .774.345.774.77v3.271l1.26-1.25a.776.776 0 0 1 1.094 0c.302.3.302.787 0 1.087l-2.58 2.564Z" fill="#030D45"/><path fill-rule="evenodd" clip-rule="evenodd" d="M12 3.538c-1.525 0-3.572.168-5.005.307A1.221 1.221 0 0 0 5.891 4.97C5.75 6.818 5.548 9.813 5.548 12c0 2.187.201 5.183.343 7.03a1.22 1.22 0 0 0 1.104 1.125c1.433.14 3.48.306 5.005.306s3.572-.167 5.005-.306a1.221 1.221 0 0 0 1.104-1.125c.142-1.848.343-4.843.343-7.03 0-.705-.021-1.496-.055-2.308h-3.3V8.153h3.224c-.19-2.437-2.093-4.379-4.515-4.557v3.276c0 .708.578 1.282 1.29 1.282v.77l.002.768a2.83 2.83 0 0 1-2.84-2.82V3.54A22.861 22.861 0 0 0 12 3.538Zm1.057-1.517A30.125 30.125 0 0 0 12 2c-1.607 0-3.72.174-5.155.314a2.765 2.765 0 0 0-2.497 2.538C4.205 6.701 4 9.748 4 12s.205 5.3.348 7.148a2.764 2.764 0 0 0 2.497 2.538c1.436.14 3.548.314 5.155.314 1.607 0 3.72-.174 5.155-.314a2.765 2.765 0 0 0 2.497-2.538C19.796 17.299 20 14.252 20 12c0-.948-.036-2.034-.089-3.11v-.01a73.891 73.891 0 0 0-.036-.69c-.18-3.28-2.757-5.963-6.092-6.137a44.523 44.523 0 0 0-.717-.032" fill="#030D45"/></svg>