<svg width="77.646" height="77.646" viewBox="0 -5.37 77.646 77.646" xmlns="http://www.w3.org/2000/svg"><defs><linearGradient id="a" x1="1.044" y1=".005" x2=".413" y2=".749" gradientUnits="objectBoundingBox"><stop offset="0" stop-color="#ff0000"/><stop offset="1" stop-color="#ff0000"/></linearGradient></defs><g data-name="heart red"><g data-name="Group 25"><path data-name="Path 69" d="M38.828 10.747c-.059-.106-.128-.2-.187-.307.059.1.128.2.187.307Z" fill="none"/><path data-name="Path 70" d="m77.646 21.112-.025-.006c.006-.142.025-.279.025-.431A20.662 20.662 0 0 0 40.607 8.064a.171.171 0 0 0-.024-.007 2.169 2.169 0 0 1-3.54-.046l-.035.008a20.657 20.657 0 0 0-37 12.656c0 .147.018.282.018.424l-.029.013s0 .5.1 1.413a20.552 20.552 0 0 0 .6 3.364c1.608 6.945 6.938 20.286 24.659 32.122 10.242 6.879 12.73 8.743 13.383 8.867.031.006.048.033.083.033s.058-.033.094-.043c.7-.162 3.265-2.071 13.359-8.857 16.931-11.313 22.555-24 24.428-31.163a20.743 20.743 0 0 0 .854-4.546c.084-.761.089-1.19.089-1.19ZM38.828 10.747c-.059-.1-.128-.2-.187-.307.059.102.128.201.187.307Z" fill="#ff0000"/></g><path data-name="Path 71" d="M295.337 474.437c-5.407-20.228 1.411-28.894 5-31.889a20.747 20.747 0 0 0-6.426-5.077c-6.5-1.416-15.583.295-21.458 16.921-1 3.4-1.458 11.938-.492 22.426a65.334 65.334 0 0 0 17.38 16.476c10.242 6.879 12.73 8.743 13.383 8.867.031.006.048.033.083.033s.058-.033.094-.043a2.946 2.946 0 0 0 .76-.373c-2.061-5.773-4.912-14.596-8.324-27.341Z" fill="url(#a)" transform="translate(-263.982 -435.283)"/></g></svg>