<svg xmlns="http://www.w3.org/2000/svg" viewBox="0 0 392.672 392.672" style="enable-background:new 0 0 392.672 392.672" xml:space="preserve"><path style="fill:#fff" d="M114.946 176.291c0 25.729 11.766 49.39 32.323 64.905 17.325 13.059 27.216 32.711 27.216 53.786l44.347-8.792c2.392-17.648 11.895-33.745 26.958-45.253 23.725-18.166 35.297-46.739 31.095-76.671-7.758-41.891-41.891-67.943-80.55-69.366-44.799.001-81.389 36.526-81.389 81.391z"/><path  style="fill:#ffc10d" d="m301.645 86.368 19.329-19.329c4.267-4.267 4.267-11.119 0-15.45-4.267-4.267-11.119-4.267-15.451 0l-19.329 19.329c-4.267 4.267-4.267 11.119 0 15.451 4.267 4.265 11.184 4.265 15.451-.001zm0 179.846c-4.267-4.267-11.119-4.267-15.451 0-4.267 4.267-4.267 11.119 0 15.451l19.329 19.329c4.267 4.267 11.119 4.267 15.451 0 4.267-4.267 4.267-11.119 0-15.451l-19.329-19.329zM91.027 86.368c4.267 4.267 11.119 4.267 15.451 0 4.267-4.267 4.267-11.119 0-15.451l-19.33-19.329c-4.267-4.267-11.119-4.267-15.451 0-4.331 4.267-4.267 11.119 0 15.45l19.33 19.33zm207.385 74.86c-6.206-52.493-52.881-88.178-102.077-88.178-56.889 0-103.176 46.287-103.176 103.24 0 32.582 14.933 62.578 40.986 82.295 11.83 8.986 18.554 22.174 18.554 36.396v14.998c-.388 6.206 6.335 12.347 13.317 10.667l65.552-14.998c4.913-1.164 8.469-5.56 8.469-10.667 0-14.158 6.982-27.539 19.006-36.784 29.996-22.949 44.67-59.151 39.369-96.969zm-52.686 79.709c-14.998 11.507-24.566 27.669-26.958 45.253l-44.347 8.792c0-21.075-9.891-40.727-27.216-53.786-20.493-15.515-32.323-39.176-32.323-64.905 0-44.865 36.461-81.39 81.39-81.39 38.659 1.487 72.727 27.539 80.549 69.366 4.266 29.931-7.37 58.569-31.095 76.67zm-79.774 115.524 65.616-14.998c5.883-1.293 9.568-7.176 8.21-13.059-1.293-5.883-7.176-9.503-13.059-8.21l-65.616 14.998c-5.883 1.293-9.568 7.176-8.21 13.059 1.099 5.688 7.564 9.826 13.059 8.21zm60.768-.324-65.616 14.998c-5.883 1.293-9.568 7.176-8.21 13.059 1.616 6.4 7.758 9.438 13.059 8.21l65.616-14.998c5.883-1.293 9.568-7.176 8.21-13.059-1.358-5.882-7.177-9.632-13.059-8.21zM196.336 49.196c6.012 0 10.925-4.848 10.925-10.925V10.925C207.261 4.913 202.412 0 196.336 0c-6.012 0-10.925 4.848-10.925 10.925v27.281c-.001 6.077 4.913 10.99 10.925 10.99zm165.301 116.17h-27.281c-6.012 0-10.925 4.848-10.925 10.925s4.848 10.925 10.925 10.925h27.281c6.012 0 10.925-4.848 10.925-10.925.065-6.012-4.913-10.925-10.925-10.925zm-303.322 0h-27.28c-6.012 0-10.925 4.848-10.925 10.925s4.848 10.925 10.925 10.925h27.281c6.012 0 10.925-4.848 10.925-10.925 0-6.012-4.913-10.925-10.926-10.925zm32.712 100.848-19.329 19.329c-4.267 4.267-4.267 11.119 0 15.451 4.267 4.267 11.119 4.267 15.451 0l19.329-19.329c4.267-4.267 4.267-11.119 0-15.451-4.268-4.267-11.185-4.267-15.451 0z"/><path style="fill:#ffc10d" d="M255.229 167.37c-5.236-28.962-28.057-49.713-58.893-50.618-32.84 0-59.604 26.764-59.604 59.604 0 18.877 8.598 36.137 23.661 47.515 15.774 11.895 26.828 27.992 32.194 45.964l8.016-1.875c5.624-17.261 16.549-32.711 31.806-44.347 17.454-13.318 25.987-34.328 22.82-56.243z"/></svg>